<?xml version="1.0" standalone="no"?>
<!DOCTYPE svg PUBLIC "-//W3C//DTD SVG 20010904//EN"
 "http://www.w3.org/TR/2001/REC-SVG-20010904/DTD/svg10.dtd">
<svg version="1.0" xmlns="http://www.w3.org/2000/svg"
 width="247.000000pt" height="242.000000pt" viewBox="0 0 247.000000 242.000000"
 preserveAspectRatio="xMidYMid meet">
<g transform="translate(0.000000,242.000000) scale(0.100000,-0.100000)"
fill="#000000" stroke="none">
<path d="M250 2377 c24 -19 248 -281 330 -387 41 -52 107 -135 146 -185 39
-49 78 -106 87 -125 8 -19 73 -113 144 -208 l129 -173 -44 -92 c-24 -51 -48
-102 -53 -114 -5 -13 -13 -23 -19 -23 -5 0 -10 -9 -10 -20 0 -23 -55 -143 -84
-182 -24 -34 -17 -44 21 -25 15 8 116 44 223 80 107 36 211 73 231 81 34 14
42 14 95 -3 33 -11 84 -26 114 -34 103 -29 175 -50 218 -63 23 -8 44 -14 46
-14 5 0 34 75 91 235 25 72 55 153 65 180 10 28 37 104 60 170 73 215 92 265
99 265 11 0 112 -37 191 -70 41 -17 84 -34 95 -37 21 -5 22 -6 -55 60 -64 55
-167 144 -183 159 -21 18 -47 14 -113 -20 -31 -16 -61 -50 -134 -154 -52 -73
-108 -154 -124 -180 -32 -48 -49 -55 -54 -22 -2 10 -40 132 -84 269 -44 138
-105 327 -135 420 -72 225 -69 219 -77 170 -16 -88 -88 -444 -103 -500 l-15
-60 34 -67 c18 -37 38 -67 44 -68 7 0 -3 29 -22 65 -19 36 -34 73 -33 83 0 15
2 14 10 -3 7 -15 8 -12 3 13 -3 20 -1 32 5 32 6 0 10 17 9 38 -1 41 8 66 21
57 5 -2 7 14 6 36 -1 21 2 42 7 45 5 3 3 13 -4 22 -11 13 -11 14 1 7 11 -6 13
-4 8 9 -4 11 -3 15 4 10 7 -4 9 1 4 15 -3 11 -2 29 4 38 9 16 12 -79 13 -424
0 -13 4 -23 9 -23 6 0 9 113 9 283 -1 358 -1 352 6 344 6 -6 14 -43 17 -79 1
-10 4 -18 7 -18 7 0 10 -17 12 -67 1 -18 5 -30 10 -27 4 3 5 -2 2 -10 -3 -9
-1 -16 6 -16 6 0 8 -5 4 -12 -5 -7 -2 -9 8 -6 12 5 14 0 12 -23 -2 -16 1 -29
7 -29 6 0 8 -9 4 -22 -5 -17 -4 -19 3 -9 8 11 10 9 10 -10 0 -41 18 -94 31
-91 7 1 10 -2 6 -8 -3 -5 -8 -19 -10 -31 -3 -15 0 -19 10 -15 8 3 17 0 21 -6
4 -7 3 -8 -4 -4 -7 4 -12 2 -12 -3 0 -6 4 -11 9 -11 5 0 8 -19 5 -42 -2 -30
-1 -37 5 -23 10 22 10 21 29 -50 6 -22 10 -56 7 -75 -2 -19 -1 -29 2 -22 7 19
19 14 31 -13 7 -15 8 -25 2 -25 -6 0 -10 6 -10 13 0 9 -3 8 -9 -2 -7 -11 -9
-11 -14 0 -4 9 -6 8 -6 -5 -1 -12 4 -16 14 -12 8 3 15 1 15 -5 0 -6 4 -8 8 -5
5 3 14 -11 20 -31 11 -36 8 -57 -6 -37 -4 6 -36 31 -72 56 -36 26 -78 58 -94
73 -15 14 -31 24 -34 21 -3 -4 -3 -7 -1 -9 2 -2 32 -25 66 -50 34 -26 68 -53
75 -60 27 -26 68 -47 81 -41 10 4 14 -3 13 -24 -1 -34 -10 -32 -60 12 -29 26
-37 29 -66 27 -10 0 -11 1 -2 5 17 8 15 24 -3 24 -8 0 -15 4 -15 8 0 5 -30 30
-66 56 -73 52 -102 68 -89 46 5 -9 4 -11 -3 -6 -7 4 -12 14 -12 22 0 8 -5 12
-10 9 -26 -16 35 -75 250 -240 150 -115 161 -126 156 -158 -3 -17 -8 -92 -12
-169 -4 -76 -10 -138 -14 -138 -4 0 -13 12 -21 28 -8 15 -33 60 -56 100 -24
40 -43 77 -43 81 0 5 -4 11 -8 13 -4 2 -20 29 -36 61 -15 31 -32 57 -37 57 -6
0 -8 4 -5 8 3 5 -19 52 -49 106 -30 53 -55 100 -55 104 0 13 -49 67 -50 55 0
-6 5 -15 10 -18 8 -5 7 -11 -1 -21 -10 -12 -8 -13 7 -8 10 4 16 3 12 -1 -5 -5
4 -23 18 -42 14 -18 26 -42 27 -52 1 -11 4 -18 8 -16 3 3 12 -14 19 -35 7 -22
16 -40 20 -40 4 0 15 -19 26 -42 10 -24 21 -45 24 -48 16 -15 57 -107 53 -120
-3 -11 -2 -12 5 -2 6 9 14 2 26 -27 10 -21 15 -44 12 -50 -4 -7 -1 -9 8 -5 9
3 17 -3 21 -18 4 -13 14 -31 22 -40 14 -15 13 -17 -5 -15 -11 0 -18 5 -16 9 3
4 0 8 -6 8 -6 0 -9 4 -6 8 3 5 -1 9 -9 9 -8 0 -12 -4 -9 -8 2 -4 -1 -11 -7
-15 -8 -5 -9 -3 -4 6 6 9 4 12 -6 8 -8 -3 -26 0 -40 8 -13 7 -35 14 -49 14
-35 1 -100 25 -110 41 -9 14 5 39 21 39 5 0 32 -16 60 -35 28 -19 56 -35 62
-35 18 0 -2 14 -102 75 -52 32 -119 73 -148 92 -29 18 -53 29 -53 24 0 -6 19
-20 41 -32 23 -11 51 -30 63 -40 11 -11 31 -22 44 -26 27 -6 24 -29 -4 -25
-11 2 -15 -1 -9 -5 12 -9 14 -37 3 -40 -17 -6 -29 -2 -23 7 3 6 -5 10 -19 10
-20 0 -24 4 -19 17 5 15 3 16 -8 6 -16 -15 -33 -17 -24 -3 3 6 -1 7 -10 4 -9
-4 -14 -13 -10 -22 4 -12 3 -12 -9 -3 -11 10 -17 8 -26 -6 -10 -16 -11 -16 -6
0 3 9 1 17 -4 17 -9 0 -14 -13 -12 -31 1 -4 -7 -6 -16 -6 -25 1 -111 -26 -107
-33 2 -3 -4 -6 -13 -6 -9 -1 -26 -5 -37 -9 -18 -8 -19 -7 -5 11 11 15 11 16 0
7 -18 -16 -34 -17 -24 -1 4 7 3 8 -5 4 -9 -6 -9 -11 0 -23 11 -12 9 -13 -14
-8 -30 8 -61 -10 -50 -28 3 -6 1 -7 -5 -3 -6 4 -20 3 -30 -3 -10 -5 -24 -6
-32 -1 -10 6 -1 21 36 60 52 55 62 70 45 70 -6 0 -11 -6 -11 -12 0 -7 -14 -22
-30 -33 -16 -11 -30 -24 -30 -30 0 -5 -14 -21 -30 -34 -17 -13 -30 -28 -30
-34 0 -6 6 -3 13 8 10 13 16 15 21 6 10 -16 3 -23 -28 -26 -14 -2 -23 2 -22 8
4 25 47 97 57 97 6 0 8 4 5 9 -8 13 12 63 22 57 12 -7 35 10 38 28 1 9 -2 14
-7 10 -5 -3 -6 -10 -3 -16 4 -6 2 -8 -4 -4 -6 3 -10 15 -9 26 1 10 5 16 9 14
8 -5 13 20 8 41 -1 5 9 1 22 -10 16 -14 19 -15 10 -3 -8 10 -11 26 -7 38 5 16
10 18 25 10 29 -15 32 -13 27 25 -3 22 0 39 9 46 16 13 8 33 -8 23 -7 -4 -8
-2 -4 5 4 6 -2 24 -13 40 -12 16 -21 32 -21 35 0 8 -16 28 -45 57 -11 11 -15
19 -10 17 6 -2 11 2 12 7 1 6 -5 9 -14 7 -9 -2 -12 1 -8 8 3 6 1 9 -6 8 -6 -2
-14 3 -17 11 -3 10 0 12 12 8 10 -4 15 -3 11 4 -4 5 -16 7 -27 3 -16 -5 -20
-3 -15 9 4 10 -3 23 -16 34 -26 22 -35 48 -13 40 11 -4 13 -1 9 10 -5 13 -3
13 14 4 11 -5 49 -17 84 -24 35 -8 72 -17 82 -22 10 -4 17 -3 17 3 0 8 -95 38
-107 34 -1 0 -24 6 -50 14 -46 14 -49 14 -65 -7 -10 -12 -18 -17 -18 -12 0 5
5 14 11 20 7 7 6 12 -6 17 -10 3 -14 2 -9 -5 3 -6 -3 -5 -15 3 -12 7 -19 18
-17 25 3 7 1 15 -4 18 -5 3 -7 12 -4 19 3 8 1 17 -4 20 -5 3 -8 -6 -6 -19 1
-14 -2 -23 -7 -19 -5 3 -7 9 -4 14 3 5 1 19 -6 31 -6 12 -7 19 -1 15 5 -3 13
1 16 10 3 8 11 12 17 8 7 -4 9 -3 5 4 -3 5 0 13 6 16 7 2 3 4 -9 2 -11 -1 -29
-8 -40 -16 -10 -8 -15 -11 -11 -6 4 4 -5 19 -20 31 -38 33 -20 50 42 41 26 -4
44 -11 41 -15 -2 -5 8 -6 23 -4 22 4 24 2 12 -7 -13 -10 -12 -11 3 -6 10 3 26
6 34 6 9 0 14 3 11 6 -9 8 -119 33 -150 34 -16 0 -28 5 -28 11 0 5 -3 8 -8 5
-14 -9 -79 28 -74 43 3 9 0 11 -8 6 -8 -5 -11 -4 -7 3 4 5 -6 21 -23 35 l-29
25 37 3 c20 2 125 2 232 -1 107 -3 213 -2 235 1 l40 5 -50 8 c-113 17 -362 70
-556 117 -32 8 -94 49 -74 49 4 0 -1 8 -13 18 -16 14 -18 22 -10 30 7 7 8 12
4 12 -5 0 -2 8 5 17 10 11 10 14 2 9 -8 -4 -13 -1 -13 8 0 9 5 16 12 16 6 0 9
2 6 5 -3 3 -12 3 -21 -1 -13 -5 -14 -10 -6 -25 7 -14 6 -19 -3 -19 -9 0 -9 -3
2 -10 8 -5 11 -10 7 -10 -5 0 -22 14 -37 30 -31 33 -28 40 4 13 20 -17 20 -17
7 0 -7 9 -25 23 -40 30 -14 7 -26 19 -26 27 -1 8 -7 14 -15 12 -8 -2 -12 0 -8
4 4 4 0 13 -10 21 -12 10 -8 9 16 -2 17 -8 32 -20 32 -26 0 -6 9 -8 20 -4 13
4 25 -1 36 -14 10 -11 22 -18 26 -15 5 3 23 0 40 -7 28 -11 29 -14 12 -21 -14
-6 -12 -7 9 -3 15 3 27 1 27 -5 0 -5 3 -9 8 -8 16 3 61 -15 56 -23 -3 -5 3 -6
12 -2 13 5 15 3 9 -7 -6 -10 -4 -12 7 -7 9 3 24 -1 35 -8 10 -8 27 -15 39 -15
11 0 29 -7 40 -16 18 -14 18 -15 -4 -4 -13 7 -26 9 -30 6 -3 -3 -3 -6 0 -6 3
0 22 -7 43 -16 20 -8 34 -10 30 -5 -3 7 0 8 9 5 9 -3 13 -10 10 -15 -3 -5 6
-9 20 -9 14 0 26 -5 26 -11 0 -6 7 -8 16 -5 14 5 15 4 4 -9 -11 -14 -10 -15
11 -7 17 7 28 6 38 -5 7 -8 19 -12 27 -9 7 3 16 0 20 -6 4 -6 3 -8 -4 -4 -6 3
-13 2 -16 -3 -4 -5 2 -8 11 -7 10 2 29 -4 43 -13 20 -13 23 -14 15 -1 -7 12
-6 13 7 2 8 -6 42 -20 74 -31 45 -14 58 -23 56 -36 -3 -14 2 -17 22 -13 14 3
25 2 24 -1 0 -3 1 -8 2 -11 8 -22 7 -39 -3 -33 -7 4 -7 0 1 -9 21 -26 13 -154
-15 -239 -35 -108 -28 -113 14 -9 9 21 10 18 9 -25 -2 -124 5 -335 12 -335 4
0 6 145 4 322 -3 292 0 356 13 288 3 -13 9 -26 15 -30 5 -3 11 -18 12 -33 3
-37 29 -69 47 -58 11 7 4 26 -35 96 -44 78 -53 89 -99 110 -92 42 -229 103
-360 160 -71 31 -173 76 -225 100 -52 23 -117 53 -145 65 -27 12 -87 40 -133
61 -86 40 -108 47 -82 26z m315 -317 c-4 -6 9 -10 32 -11 21 -1 43 -2 48 -4 6
-1 25 -3 43 -3 18 -1 31 -6 28 -10 -2 -4 7 -9 22 -10 43 -3 112 -24 112 -34 0
-5 3 -7 8 -4 4 2 32 1 62 -4 42 -6 14 -8 -111 -9 l-166 -1 -47 41 c-39 34 -51
59 -30 59 3 0 2 -4 -1 -10z m1628 -237 c16 -16 45 -42 63 -59 18 -17 36 -29
39 -26 3 3 5 0 5 -6 0 -11 -11 -15 -27 -9 -5 1 -6 9 -5 17 3 11 1 12 -8 4 -13
-13 -50 -7 -50 8 0 6 -7 5 -15 -2 -10 -9 -15 -9 -15 -1 0 6 -8 11 -17 11 -15
0 -15 1 2 13 12 9 14 16 7 21 -6 4 -9 13 -5 21 3 8 0 15 -6 15 -6 0 -11 5 -11
10 0 16 12 12 43 -17z m-80 -4 c-6 -6 -9 -19 -6 -28 3 -11 1 -11 -7 3 -10 15
-9 20 1 27 19 12 25 11 12 -2z m40 5 c7 -7 -19 -75 -32 -84 -10 -6 -42 -80
-35 -80 3 0 -4 -13 -16 -30 -12 -16 -18 -30 -14 -30 3 0 0 -8 -7 -17 -12 -14
-12 -16 1 -9 8 4 2 -5 -15 -20 -16 -15 -22 -25 -13 -21 12 4 15 2 11 -9 -3 -7
-9 -14 -15 -14 -5 0 -6 -10 -3 -21 4 -13 3 -19 -2 -16 -6 4 -8 -4 -5 -20 4
-20 2 -24 -8 -18 -10 6 -12 4 -7 -8 3 -8 -1 -21 -9 -28 -9 -8 -11 -16 -5 -23
6 -7 6 -17 0 -26 -8 -13 -10 -13 -18 0 -5 8 -7 18 -5 22 3 4 1 8 -3 8 -16 0
-34 -38 -21 -46 6 -4 8 -3 4 4 -3 6 -2 13 4 17 9 6 14 -8 11 -28 -1 -5 3 -6 7
-3 5 3 2 -10 -6 -29 -9 -19 -19 -32 -24 -29 -4 3 -5 -3 -1 -12 5 -13 3 -15 -8
-9 -11 7 -12 6 -2 -6 9 -11 7 -23 -8 -53 -10 -22 -19 -48 -19 -58 0 -10 -5
-18 -11 -18 -6 0 -9 -6 -6 -14 3 -8 -1 -22 -9 -33 -14 -17 -14 -17 -5 4 7 14
8 24 1 28 -5 3 -6 15 -1 28 4 12 9 49 10 82 2 54 -1 62 -26 85 -15 14 -41 34
-57 44 -36 23 -80 66 -68 66 5 0 12 -3 16 -7 4 -4 20 -8 35 -8 25 -1 27 1 17
18 -9 15 -6 22 22 45 18 15 32 32 32 39 0 6 10 19 22 27 12 9 19 19 15 22 -4
4 -2 13 4 21 10 11 15 11 27 1 13 -11 14 -10 4 8 -9 17 -6 26 18 56 16 19 26
38 22 42 -3 4 2 4 12 0 18 -7 18 -8 -4 -26 -12 -10 -17 -18 -12 -18 6 0 14 5
17 10 4 6 10 8 15 5 8 -5 7 12 -1 40 -5 16 21 56 31 50 6 -3 7 0 4 8 -3 8 6
23 20 34 14 11 22 23 19 27 -3 3 -1 6 5 6 7 0 15 0 20 0 11 0 11 -42 -1 -67
-6 -13 -15 -23 -20 -23 -6 0 -8 -3 -4 -6 3 -3 -8 -30 -24 -60 -17 -29 -28 -58
-24 -64 3 -5 2 -10 -4 -10 -5 0 -13 -9 -16 -21 -4 -11 -13 -18 -20 -15 -9 3
-11 -2 -7 -16 3 -14 1 -19 -6 -14 -6 3 -14 1 -18 -5 -4 -8 -3 -9 4 -5 7 4 12
1 12 -9 0 -8 -7 -18 -15 -21 -11 -5 -11 -9 -2 -19 9 -10 31 27 104 177 51 104
93 193 93 199 0 10 14 12 23 3z m-1385 -18 c-7 -8 -15 -12 -17 -11 -5 6 10 25
20 25 5 0 4 -6 -3 -14z m551 -40 c-3 -3 -11 5 -18 17 -13 21 -12 21 5 5 10
-10 16 -20 13 -22z m233 -239 c16 -15 33 -25 38 -22 8 5 30 -24 30 -40 0 -7
-10 1 -70 55 -25 22 -53 42 -63 46 -9 3 -15 9 -12 14 6 9 26 -4 77 -53z m-601
-4 c13 -16 12 -17 -3 -4 -10 7 -18 15 -18 17 0 8 8 3 21 -13z m709 -83 c0 -5
-2 -10 -4 -10 -3 0 -8 5 -11 10 -3 6 -1 10 4 10 6 0 11 -4 11 -10z m40 -32 c0
-6 -6 -5 -15 2 -8 7 -15 14 -15 16 0 2 7 1 15 -2 8 -4 15 -11 15 -16z m-585
-138 c-3 -5 -12 -10 -18 -10 -7 0 -6 4 3 10 19 12 23 12 15 0z m-24 -39 c-9
-6 -10 -11 -2 -15 6 -4 11 -12 11 -19 0 -7 -7 -5 -16 5 -17 17 -12 38 9 38 8
0 8 -3 -2 -9z m-87 -159 c3 -5 -1 -9 -9 -9 -8 0 -12 4 -9 9 3 4 7 8 9 8 2 0 6
-4 9 -8z m86 -136 c0 -2 -7 -6 -15 -10 -8 -3 -15 -1 -15 4 0 6 7 10 15 10 8 0
15 -2 15 -4z"/>
<path d="M611 2021 c-10 -6 -9 -10 3 -14 8 -3 18 -2 21 3 8 13 -9 20 -24 11z"/>
<path d="M2183 1792 c14 -15 15 -21 5 -26 -9 -4 -9 -5 2 -4 8 1 25 -3 38 -10
12 -7 22 -10 22 -7 0 9 -38 43 -62 56 -23 12 -23 12 -5 -9z"/>
<path d="M1887 1554 c-3 -5 1 -15 9 -22 16 -14 18 -5 5 17 -5 7 -11 9 -14 5z"/>
<path d="M1796 1422 c-2 -4 2 -16 10 -27 8 -10 14 -14 14 -8 0 7 -5 15 -10 18
-6 4 -8 11 -5 16 4 5 4 9 1 9 -3 0 -7 -3 -10 -8z"/>
<path d="M1820 1421 c0 -6 4 -13 10 -16 6 -3 7 1 4 9 -7 18 -14 21 -14 7z"/>
<path d="M1908 1392 c-23 -47 -16 -52 10 -8 12 20 18 37 14 40 -4 2 -15 -12
-24 -32z"/>
<path d="M1772 1356 c7 -8 17 -12 22 -9 4 3 2 9 -5 14 -22 13 -31 11 -17 -5z"/>
<path d="M1876 1303 c-6 -14 -5 -15 5 -6 7 7 10 15 7 18 -3 3 -9 -2 -12 -12z"/>
<path d="M410 2276 c0 -2 7 -9 15 -16 9 -7 15 -8 15 -2 0 5 -7 12 -15 16 -8 3
-15 4 -15 2z"/>
<path d="M335 2201 c-3 -5 -2 -12 3 -15 5 -3 9 1 9 9 0 17 -3 19 -12 6z"/>
<path d="M540 2170 c13 -9 13 -11 0 -20 -13 -8 -13 -10 1 -10 26 0 31 36 5 38
-17 1 -18 -1 -6 -8z"/>
<path d="M268 2123 c7 -3 16 -2 19 1 4 3 -2 6 -13 5 -11 0 -14 -3 -6 -6z"/>
<path d="M318 2023 c7 -3 16 -2 19 1 4 3 -2 6 -13 5 -11 0 -14 -3 -6 -6z"/>
<path d="M388 2023 c7 -3 16 -2 19 1 4 3 -2 6 -13 5 -11 0 -14 -3 -6 -6z"/>
<path d="M190 1940 c0 -5 5 -10 10 -10 6 0 10 5 10 10 0 6 -4 10 -10 10 -5 0
-10 -4 -10 -10z"/>
<path d="M260 1940 c0 -5 5 -10 10 -10 6 0 10 5 10 10 0 6 -4 10 -10 10 -5 0
-10 -4 -10 -10z"/>
<path d="M330 1940 c0 -5 5 -10 10 -10 6 0 10 5 10 10 0 6 -4 10 -10 10 -5 0
-10 -4 -10 -10z"/>
<path d="M365 1940 c4 -6 11 -8 16 -5 14 9 11 15 -7 15 -8 0 -12 -5 -9 -10z"/>
<path d="M400 1940 c0 -5 5 -10 10 -10 6 0 10 5 10 10 0 6 -4 10 -10 10 -5 0
-10 -4 -10 -10z"/>
<path d="M440 1939 c0 -5 5 -7 10 -4 6 3 10 8 10 11 0 2 -4 4 -10 4 -5 0 -10
-5 -10 -11z"/>
<path d="M470 1940 c0 -5 5 -10 10 -10 6 0 10 5 10 10 0 6 -4 10 -10 10 -5 0
-10 -4 -10 -10z"/>
<path d="M510 1939 c0 -5 5 -7 10 -4 6 3 10 8 10 11 0 2 -4 4 -10 4 -5 0 -10
-5 -10 -11z"/>
<path d="M540 1940 c0 -5 5 -10 10 -10 6 0 10 5 10 10 0 6 -4 10 -10 10 -5 0
-10 -4 -10 -10z"/>
<path d="M683 1920 c2 -8 12 -16 23 -17 13 -2 15 -1 4 4 -8 3 -19 11 -23 17
-6 7 -7 6 -4 -4z"/>
<path d="M1135 1920 c-3 -5 -2 -10 4 -10 5 0 13 5 16 10 3 6 2 10 -4 10 -5 0
-13 -4 -16 -10z"/>
<path d="M1078 1913 c7 -3 16 -2 19 1 4 3 -2 6 -13 5 -11 0 -14 -3 -6 -6z"/>
<path d="M1200 1910 c0 -5 5 -10 11 -10 5 0 7 5 4 10 -3 6 -8 10 -11 10 -2 0
-4 -4 -4 -10z"/>
<path d="M990 1904 c-14 -3 -41 -8 -60 -14 -19 -5 -63 -12 -97 -15 -34 -3 -72
-10 -85 -15 -40 -17 109 3 252 34 59 12 52 19 -10 10z"/>
<path d="M1170 1900 c0 -5 5 -10 10 -10 6 0 10 5 10 10 0 6 -4 10 -10 10 -5 0
-10 -4 -10 -10z"/>
<path d="M1405 1891 c-3 -5 0 -13 6 -17 7 -4 9 -3 5 4 -3 6 2 13 11 15 16 4
16 5 1 6 -9 0 -19 -3 -23 -8z"/>
<path d="M1068 1883 c7 -3 16 -2 19 1 4 3 -2 6 -13 5 -11 0 -14 -3 -6 -6z"/>
<path d="M1140 1880 c0 -5 5 -10 10 -10 6 0 10 5 10 10 0 6 -4 10 -10 10 -5 0
-10 -4 -10 -10z"/>
<path d="M1074 1845 c-10 -8 -14 -14 -9 -15 15 0 40 18 34 24 -3 3 -14 -1 -25
-9z"/>
<path d="M1600 1796 c0 -2 8 -10 18 -17 15 -13 16 -12 3 4 -13 16 -21 21 -21
13z"/>
<path d="M807 1769 c7 -7 15 -10 18 -7 3 3 -2 9 -12 12 -14 6 -15 5 -6 -5z"/>
<path d="M865 1711 c-3 -5 -2 -12 3 -15 5 -3 9 1 9 9 0 17 -3 19 -12 6z"/>
<path d="M1460 1635 c0 -8 5 -15 10 -15 6 0 10 7 10 15 0 8 -4 15 -10 15 -5 0
-10 -7 -10 -15z"/>
<path d="M300 1620 c0 -5 7 -10 16 -10 8 0 12 5 9 10 -3 6 -10 10 -16 10 -5 0
-9 -4 -9 -10z"/>
<path d="M340 1620 c0 -5 5 -10 10 -10 6 0 10 5 10 10 0 6 -4 10 -10 10 -5 0
-10 -4 -10 -10z"/>
<path d="M375 1620 c3 -5 10 -10 16 -10 5 0 9 5 9 10 0 6 -7 10 -16 10 -8 0
-12 -4 -9 -10z"/>
<path d="M410 1620 c0 -5 5 -10 10 -10 6 0 10 5 10 10 0 6 -4 10 -10 10 -5 0
-10 -4 -10 -10z"/>
<path d="M450 1620 c0 -5 5 -10 11 -10 5 0 7 5 4 10 -3 6 -8 10 -11 10 -2 0
-4 -4 -4 -10z"/>
<path d="M485 1620 c-3 -5 -1 -10 4 -10 6 0 11 5 11 10 0 6 -2 10 -4 10 -3 0
-8 -4 -11 -10z"/>
<path d="M520 1620 c0 -5 5 -10 10 -10 6 0 10 5 10 10 0 6 -4 10 -10 10 -5 0
-10 -4 -10 -10z"/>
<path d="M590 1620 c0 -5 5 -10 10 -10 6 0 10 5 10 10 0 6 -4 10 -10 10 -5 0
-10 -4 -10 -10z"/>
<path d="M660 1620 c0 -5 5 -10 10 -10 6 0 10 5 10 10 0 6 -4 10 -10 10 -5 0
-10 -4 -10 -10z"/>
<path d="M695 1620 c-3 -5 1 -10 9 -10 9 0 16 5 16 10 0 6 -4 10 -9 10 -6 0
-13 -4 -16 -10z"/>
<path d="M730 1620 c0 -5 5 -10 10 -10 6 0 10 5 10 10 0 6 -4 10 -10 10 -5 0
-10 -4 -10 -10z"/>
<path d="M770 1620 c0 -5 5 -10 10 -10 6 0 10 5 10 10 0 6 -4 10 -10 10 -5 0
-10 -4 -10 -10z"/>
<path d="M805 1620 c-3 -5 -1 -10 4 -10 6 0 11 5 11 10 0 6 -2 10 -4 10 -3 0
-8 -4 -11 -10z"/>
<path d="M835 1530 c-3 -5 -1 -10 4 -10 6 0 11 5 11 10 0 6 -2 10 -4 10 -3 0
-8 -4 -11 -10z"/>
<path d="M698 1523 c7 -3 16 -2 19 1 4 3 -2 6 -13 5 -11 0 -14 -3 -6 -6z"/>
<path d="M745 1481 c-3 -5 -2 -12 3 -15 5 -3 9 1 9 9 0 17 -3 19 -12 6z"/>
<path d="M1590 1400 c-13 -8 -12 -10 3 -10 9 0 17 5 17 10 0 12 -1 12 -20 0z"/>
<path d="M1097 1369 c7 -7 15 -10 18 -7 3 3 -2 9 -12 12 -14 6 -15 5 -6 -5z"/>
<path d="M1100 1330 c0 -5 5 -10 11 -10 5 0 7 5 4 10 -3 6 -8 10 -11 10 -2 0
-4 -4 -4 -10z"/>
<path d="M660 1290 c-9 -6 -10 -10 -3 -10 6 0 15 5 18 10 8 12 4 12 -15 0z"/>
<path d="M1164 1263 c10 -11 36 -12 36 -2 0 5 -10 9 -22 9 -12 0 -18 -3 -14
-7z"/>
<path d="M1210 1258 c0 -5 18 -17 40 -25 22 -9 40 -20 40 -25 0 -5 5 -6 11 -3
11 7 -30 42 -43 37 -5 -1 -8 2 -8 7 0 5 -9 11 -20 14 -11 3 -20 1 -20 -5z"/>
<path d="M630 1250 c0 -5 5 -10 10 -10 6 0 10 5 10 10 0 6 -4 10 -10 10 -5 0
-10 -4 -10 -10z"/>
<path d="M670 1250 c0 -5 5 -10 10 -10 6 0 10 5 10 10 0 6 -4 10 -10 10 -5 0
-10 -4 -10 -10z"/>
<path d="M710 1249 c0 -5 5 -7 10 -4 6 3 10 8 10 11 0 2 -4 4 -10 4 -5 0 -10
-5 -10 -11z"/>
<path d="M740 1250 c0 -5 5 -10 10 -10 6 0 10 5 10 10 0 6 -4 10 -10 10 -5 0
-10 -4 -10 -10z"/>
<path d="M775 1250 c3 -5 8 -10 11 -10 2 0 4 5 4 10 0 6 -5 10 -11 10 -5 0 -7
-4 -4 -10z"/>
<path d="M810 1250 c0 -5 5 -10 10 -10 6 0 10 5 10 10 0 6 -4 10 -10 10 -5 0
-10 -4 -10 -10z"/>
<path d="M850 1250 c0 -5 5 -10 10 -10 6 0 10 5 10 10 0 6 -4 10 -10 10 -5 0
-10 -4 -10 -10z"/>
<path d="M880 1250 c0 -5 5 -10 10 -10 6 0 10 5 10 10 0 6 -4 10 -10 10 -5 0
-10 -4 -10 -10z"/>
<path d="M920 1249 c0 -5 5 -7 10 -4 6 3 10 8 10 11 0 2 -4 4 -10 4 -5 0 -10
-5 -10 -11z"/>
<path d="M950 1250 c0 -5 5 -10 10 -10 6 0 10 5 10 10 0 6 -4 10 -10 10 -5 0
-10 -4 -10 -10z"/>
<path d="M990 1249 c0 -5 5 -7 10 -4 6 3 10 8 10 11 0 2 -4 4 -10 4 -5 0 -10
-5 -10 -11z"/>
<path d="M1020 1250 c0 -5 5 -10 10 -10 6 0 10 5 10 10 0 6 -4 10 -10 10 -5 0
-10 -4 -10 -10z"/>
<path d="M1663 1248 c-17 -6 -17 -7 0 -7 11 -1 15 -6 11 -13 -5 -8 -3 -8 7 -2
18 12 120 13 112 1 -3 -4 4 -3 15 4 12 7 20 15 18 16 -7 7 -147 8 -163 1z"/>
<path d="M1368 1243 c46 -2 118 -2 160 0 42 1 5 3 -83 3 -88 0 -123 -2 -77 -3z"/>
<path d="M1210 1219 c0 -5 5 -7 10 -4 6 3 10 8 10 11 0 2 -4 4 -10 4 -5 0 -10
-5 -10 -11z"/>
<path d="M696 1212 c-3 -5 1 -9 9 -9 8 0 12 4 9 9 -3 4 -7 8 -9 8 -2 0 -6 -4
-9 -8z"/>
<path d="M1240 1210 c0 -5 4 -10 8 -10 10 0 37 -51 33 -63 -1 -5 3 -6 8 -3 13
8 64 -62 57 -79 -3 -9 0 -12 10 -8 7 3 14 8 14 12 0 11 -47 75 -83 113 -10 10
-15 24 -11 30 4 7 3 8 -4 4 -7 -4 -12 -2 -12 3 0 6 -4 11 -10 11 -5 0 -10 -4
-10 -10z"/>
<path d="M1320 1189 c0 -5 5 -7 10 -4 6 3 10 8 10 11 0 2 -4 4 -10 4 -5 0 -10
-5 -10 -11z"/>
<path d="M1620 1164 c0 -8 5 -12 10 -9 6 4 8 11 5 16 -9 14 -15 11 -15 -7z"/>
<path d="M290 1154 c0 -8 5 -12 10 -9 6 4 8 11 5 16 -9 14 -15 11 -15 -7z"/>
<path d="M360 1149 c0 -5 5 -7 10 -4 6 3 10 8 10 11 0 2 -4 4 -10 4 -5 0 -10
-5 -10 -11z"/>
<path d="M430 1149 c0 -5 5 -7 10 -4 6 3 10 8 10 11 0 2 -4 4 -10 4 -5 0 -10
-5 -10 -11z"/>
<path d="M538 1153 c7 -3 16 -2 19 1 4 3 -2 6 -13 5 -11 0 -14 -3 -6 -6z"/>
<path d="M608 1153 c7 -3 16 -2 19 1 4 3 -2 6 -13 5 -11 0 -14 -3 -6 -6z"/>
<path d="M640 1149 c0 -5 5 -7 10 -4 6 3 10 8 10 11 0 2 -4 4 -10 4 -5 0 -10
-5 -10 -11z"/>
<path d="M1091 1074 c-7 -8 -11 -17 -9 -20 3 -2 13 5 23 16 10 11 14 20 9 20
-5 -1 -15 -8 -23 -16z"/>
<path d="M685 1060 c3 -5 8 -10 11 -10 2 0 4 5 4 10 0 6 -5 10 -11 10 -5 0 -7
-4 -4 -10z"/>
<path d="M720 1059 c0 -5 5 -7 10 -4 6 3 10 8 10 11 0 2 -4 4 -10 4 -5 0 -10
-5 -10 -11z"/>
<path d="M750 1060 c0 -5 5 -10 10 -10 6 0 10 5 10 10 0 6 -4 10 -10 10 -5 0
-10 -4 -10 -10z"/>
<path d="M785 1060 c4 -6 11 -8 16 -5 14 9 11 15 -7 15 -8 0 -12 -5 -9 -10z"/>
<path d="M820 1060 c0 -5 5 -10 10 -10 6 0 10 5 10 10 0 6 -4 10 -10 10 -5 0
-10 -4 -10 -10z"/>
<path d="M855 1060 c3 -5 8 -10 11 -10 2 0 4 5 4 10 0 6 -5 10 -11 10 -5 0 -7
-4 -4 -10z"/>
<path d="M890 1060 c0 -5 5 -10 10 -10 6 0 10 5 10 10 0 6 -4 10 -10 10 -5 0
-10 -4 -10 -10z"/>
<path d="M930 1059 c0 -5 5 -7 10 -4 6 3 10 8 10 11 0 2 -4 4 -10 4 -5 0 -10
-5 -10 -11z"/>
<path d="M1683 1054 c-7 -7 -9 -15 -5 -17 4 -3 13 1 19 9 7 7 9 15 5 17 -4 3
-13 -1 -19 -9z"/>
<path d="M1285 1020 c3 -5 8 -10 11 -10 2 0 4 5 4 10 0 6 -5 10 -11 10 -5 0
-7 -4 -4 -10z"/>
<path d="M500 970 c0 -5 5 -10 10 -10 6 0 10 5 10 10 0 6 -4 10 -10 10 -5 0
-10 -4 -10 -10z"/>
<path d="M535 970 c3 -5 10 -10 16 -10 5 0 9 5 9 10 0 6 -7 10 -16 10 -8 0
-12 -4 -9 -10z"/>
<path d="M570 970 c0 -5 5 -10 10 -10 6 0 10 5 10 10 0 6 -4 10 -10 10 -5 0
-10 -4 -10 -10z"/>
<path d="M600 970 c0 -5 7 -10 15 -10 8 0 15 5 15 10 0 6 -7 10 -15 10 -8 0
-15 -4 -15 -10z"/>
<path d="M640 970 c0 -5 5 -10 10 -10 6 0 10 5 10 10 0 6 -4 10 -10 10 -5 0
-10 -4 -10 -10z"/>
<path d="M680 970 c0 -5 5 -10 10 -10 6 0 10 5 10 10 0 6 -4 10 -10 10 -5 0
-10 -4 -10 -10z"/>
<path d="M710 970 c0 -5 5 -10 10 -10 6 0 10 5 10 10 0 6 -4 10 -10 10 -5 0
-10 -4 -10 -10z"/>
<path d="M750 970 c0 -5 5 -10 10 -10 6 0 10 5 10 10 0 6 -4 10 -10 10 -5 0
-10 -4 -10 -10z"/>
<path d="M780 970 c0 -5 5 -10 10 -10 6 0 10 5 10 10 0 6 -4 10 -10 10 -5 0
-10 -4 -10 -10z"/>
<path d="M820 970 c0 -5 5 -10 10 -10 6 0 10 5 10 10 0 6 -4 10 -10 10 -5 0
-10 -4 -10 -10z"/>
<path d="M850 970 c0 -5 5 -10 10 -10 6 0 10 5 10 10 0 6 -4 10 -10 10 -5 0
-10 -4 -10 -10z"/>
<path d="M890 970 c0 -5 5 -10 10 -10 6 0 10 5 10 10 0 6 -4 10 -10 10 -5 0
-10 -4 -10 -10z"/>
<path d="M1041 963 c-7 -8 -11 -16 -8 -19 2 -2 10 2 17 11 17 20 9 27 -9 8z"/>
<path d="M1690 969 c0 -5 5 -7 10 -4 6 3 10 8 10 11 0 2 -4 4 -10 4 -5 0 -10
-5 -10 -11z"/>
<path d="M773 645 c0 -8 4 -12 9 -9 5 3 6 10 3 15 -9 13 -12 11 -12 -6z"/>
<path d="M154 586 c-51 -23 -77 -100 -54 -161 19 -50 58 -75 116 -75 46 0 57
4 88 34 20 18 36 38 36 45 0 21 -46 11 -68 -14 -46 -53 -132 -14 -132 60 0 74
86 113 132 60 27 -31 69 -35 61 -6 -15 57 -112 88 -179 57z"/>
<path d="M445 586 c-37 -16 -49 -31 -64 -78 -27 -83 34 -158 127 -158 45 0 55
4 87 35 30 31 35 42 35 82 0 103 -89 161 -185 119z m108 -46 c55 -43 39 -133
-26 -145 -90 -17 -140 65 -81 134 31 37 69 41 107 11z"/>
<path d="M680 475 c0 -118 1 -125 20 -125 18 0 20 7 20 80 0 47 -4 80 -10 80
-12 0 -13 47 -1 54 4 3 13 -7 20 -22 11 -25 10 -26 -4 -8 -21 28 -19 4 3 -25
28 -39 42 -63 48 -81 12 -36 48 -20 79 35 l30 52 3 -82 c3 -78 4 -83 25 -83
22 0 22 2 19 125 -3 124 -3 125 -27 125 -17 0 -30 -12 -51 -47 -53 -93 -47
-92 -88 -19 -30 53 -42 66 -61 66 l-25 0 0 -125z m228 60 c0 -19 -4 -23 -13
-15 -6 5 -16 6 -21 2 -4 -4 -3 0 4 9 6 9 9 19 5 22 -3 4 1 7 9 7 10 0 16 -9
16 -25z m-68 -70 c0 -2 -10 -9 -22 -15 -22 -11 -22 -10 -4 4 21 17 26 19 26
11z"/>
<path d="M988 475 c-3 -124 -3 -125 20 -125 19 0 22 5 22 45 l0 45 54 0 c48 0
57 3 80 31 30 35 30 35 16 76 -14 39 -46 53 -125 53 l-64 0 -3 -125z m163 78
c13 -16 12 -17 -3 -4 -10 7 -18 15 -18 17 0 8 8 3 21 -13z m-33 -2 c7 -4 14
-19 14 -32 1 -13 6 -31 12 -39 8 -12 7 -13 -3 -3 -9 7 -31 10 -62 6 l-49 -6 0
42 c0 41 0 41 38 41 20 0 43 -4 50 -9z m47 -40 c3 -5 2 -12 -3 -15 -5 -3 -9 1
-9 9 0 17 3 19 12 6z m-135 -53 c0 -5 -4 -8 -10 -8 -5 0 -10 10 -10 23 0 18 2
19 10 7 5 -8 10 -18 10 -22z"/>
<path d="M1220 475 l0 -125 90 0 c83 0 90 1 90 20 0 18 -7 20 -65 20 l-65 0 0
33 0 32 60 -3 c59 -4 60 -3 60 23 0 26 -1 27 -60 23 l-60 -3 0 33 0 32 65 0
c58 0 65 2 65 20 0 19 -7 20 -90 20 l-90 0 0 -125z m40 -16 c-6 -10 -13 -19
-16 -19 -2 0 0 8 5 19 6 10 7 22 3 26 -4 5 -1 5 6 1 9 -5 9 -12 2 -27z"/>
<path d="M1510 590 c-58 -23 -87 -118 -55 -180 41 -78 189 -80 224 -3 15 32
14 33 -9 33 -12 0 -31 -11 -43 -24 -12 -14 -29 -26 -37 -27 -63 -7 -100 23
-100 82 0 78 84 119 132 64 21 -24 68 -35 68 -15 0 5 -13 24 -28 41 -23 26
-37 32 -78 35 -27 2 -60 -1 -74 -6z m-20 -185 c14 -19 14 -19 -2 -6 -10 7 -18
18 -18 24 0 6 1 8 3 6 1 -2 9 -13 17 -24z"/>
<path d="M1731 475 c1 -125 1 -125 25 -125 l24 0 0 125 0 125 -25 0 -26 0 2
-125z"/>
<path d="M1830 475 l0 -125 25 0 c24 0 25 2 25 77 0 56 -4 81 -16 94 -17 19
-13 49 6 49 6 0 8 -4 5 -10 -3 -5 -1 -10 5 -10 6 0 9 -4 6 -9 -4 -5 0 -12 6
-14 10 -4 10 -6 1 -6 -8 -1 -2 -19 16 -48 60 -104 76 -123 99 -123 22 0 22 2
22 125 0 118 -1 125 -20 125 -17 0 -19 -8 -22 -87 l-3 -86 -53 86 c-43 71 -57
87 -77 87 l-25 0 0 -125z m27 -47 c-3 -8 -6 -5 -6 6 -1 11 2 17 5 13 3 -3 4
-12 1 -19z m145 -15 c-10 -4 -10 -8 -1 -19 8 -10 8 -14 0 -14 -6 0 -11 2 -11
4 0 2 -3 11 -6 20 -4 11 -1 16 12 15 12 0 14 -3 6 -6z"/>
<path d="M2081 475 l-2 -125 26 0 c23 0 25 4 25 45 l0 45 53 0 c57 0 78 13 91
57 20 65 -29 103 -133 103 l-59 0 -1 -125z m143 69 c9 -8 16 -19 16 -24 0 -21
-34 -40 -71 -40 -39 0 -39 0 -39 40 0 40 0 40 39 40 23 0 46 -7 55 -16z"/>
<path d="M290 184 l0 -45 38 3 c32 3 37 7 40 31 4 37 -13 57 -49 57 -28 0 -29
-2 -29 -46z m64 11 c5 -15 -18 -45 -35 -45 -5 0 -9 14 -9 30 0 23 5 30 19 30
10 0 21 -7 25 -15z"/>
<path d="M393 185 c-2 -45 -2 -45 33 -45 19 0 34 4 34 8 0 5 -10 8 -21 8 -12
-1 -24 5 -27 13 -3 10 1 12 17 8 11 -3 21 -1 21 4 0 5 -9 9 -20 9 -11 0 -20 5
-20 10 0 6 11 10 25 10 14 0 25 5 25 10 0 6 -15 10 -33 10 -32 0 -33 -1 -34
-45z"/>
<path d="M480 185 c0 -45 0 -45 35 -45 19 0 35 4 35 10 0 5 -10 9 -22 7 -20
-2 -23 3 -26 36 -4 52 -22 46 -22 -8z"/>
<path d="M570 185 c0 -25 5 -45 10 -45 6 0 10 20 10 45 0 25 -4 45 -10 45 -5
0 -10 -20 -10 -45z"/>
<path d="M600 221 c0 -6 4 -12 9 -16 5 -3 12 -19 16 -35 9 -40 33 -38 51 5 16
40 18 55 5 55 -5 0 -12 -13 -16 -30 -10 -43 -23 -46 -31 -5 -3 20 -12 35 -20
35 -8 0 -14 -4 -14 -9z"/>
<path d="M712 186 c1 -42 3 -44 35 -48 23 -3 33 0 33 9 0 9 -8 11 -25 7 -19
-5 -25 -2 -25 11 0 12 5 15 20 10 11 -4 20 -2 20 4 0 6 -9 11 -21 11 -12 0
-19 5 -16 13 2 6 14 11 25 9 12 -2 22 2 22 7 0 6 -16 11 -35 11 -35 0 -35 0
-33 -44z"/>
<path d="M800 179 c0 -31 4 -48 10 -44 6 3 10 13 10 21 0 19 19 18 26 -1 4 -8
13 -15 22 -15 12 0 13 3 4 12 -7 7 -8 17 -2 29 16 29 1 49 -36 49 l-34 0 0
-51z m58 23 c2 -7 -6 -12 -17 -12 -21 0 -27 11 -14 24 9 9 26 2 31 -12z"/>
<path d="M900 185 c0 -25 5 -45 10 -45 6 0 10 20 10 45 0 25 -4 45 -10 45 -5
0 -10 -20 -10 -45z"/>
<path d="M940 178 c0 -52 15 -58 22 -8 4 25 4 25 21 -8 10 -18 22 -30 27 -27
13 8 13 95 0 95 -5 0 -10 -15 -10 -32 l0 -33 -20 33 c-28 46 -40 40 -40 -20z"/>
<path d="M1050 211 c-16 -30 -12 -49 13 -65 22 -15 67 -12 67 4 0 5 3 15 6 24
5 12 0 16 -20 16 -14 0 -26 -4 -26 -10 0 -5 8 -10 17 -10 12 0 14 -3 6 -11
-16 -16 -53 -1 -53 20 0 29 26 46 45 31 9 -7 19 -10 22 -6 4 4 1 11 -7 16 -25
16 -59 11 -70 -9z"/>
<path d="M1190 220 c0 -5 7 -10 15 -10 10 0 15 -11 15 -35 0 -19 5 -35 10 -35
6 0 10 16 10 35 0 24 5 35 15 35 8 0 15 5 15 10 0 6 -18 10 -40 10 -22 0 -40
-4 -40 -10z"/>
<path d="M1292 218 c-13 -13 -16 -47 -4 -64 24 -35 82 -17 82 26 0 31 -17 50
-45 50 -12 0 -26 -5 -33 -12z m58 -40 c0 -25 -28 -34 -48 -15 -14 15 -14 18 3
37 21 23 45 11 45 -22z"/>
<path d="M1392 185 c0 -48 17 -64 19 -17 l1 27 11 -27 c14 -37 25 -35 40 5
l12 32 6 -40 c6 -39 6 -39 8 13 1 59 -13 68 -32 20 l-13 -33 -12 33 c-17 48
-39 41 -40 -13z"/>
<path d="M1534 222 c-15 -10 -24 -40 -17 -58 8 -23 50 -36 74 -24 22 12 26 59
7 78 -13 13 -47 16 -64 4z m46 -17 c17 -20 8 -50 -14 -50 -27 0 -43 29 -27 49
17 20 25 20 41 1z"/>
<path d="M1630 185 c0 -25 5 -45 10 -45 6 0 10 7 10 15 0 8 4 15 9 15 5 0 14
-7 21 -15 7 -8 17 -15 22 -15 6 0 5 7 -2 15 -10 12 -10 18 0 30 18 21 -4 45
-41 45 -28 0 -29 -2 -29 -45z m44 29 c23 -9 20 -24 -4 -24 -11 0 -20 7 -20 15
0 17 2 18 24 9z"/>
<path d="M1730 179 c0 -31 4 -48 10 -44 6 3 10 13 10 21 0 21 15 17 33 -8 8
-13 18 -20 22 -16 4 4 2 14 -5 23 -10 12 -10 18 0 30 18 21 -4 45 -41 45 -28
0 -29 -2 -29 -51z m44 35 c23 -9 20 -24 -4 -24 -11 0 -20 7 -20 15 0 17 2 18
24 9z"/>
<path d="M1836 214 c-32 -32 -13 -74 34 -74 30 0 50 16 50 41 0 23 -27 49 -50
49 -10 0 -26 -7 -34 -16z m58 -17 c16 -25 -16 -56 -38 -37 -19 15 -20 32 -4
48 15 15 28 11 42 -11z"/>
<path d="M1934 213 c3 -10 8 -30 12 -45 8 -37 23 -35 36 5 l12 32 8 -33 c11
-43 28 -37 43 16 11 34 11 42 0 42 -8 0 -15 -12 -17 -27 l-4 -28 -12 28 c-13
31 -32 36 -32 8 0 -30 -17 -34 -24 -6 -4 14 -11 25 -17 25 -6 0 -8 -8 -5 -17z"/>
</g>
</svg>
